<?xml version="1.0" encoding="UTF-8"?>
<svg xmlns="http://www.w3.org/2000/svg" xmlns:xlink="http://www.w3.org/1999/xlink" width="255.93pt" height="255.93pt"  version="1.1">
    <defs>
        <clipPath id="clip1">
            <path d="M 0 0 L 255.929688 0 L 255.929688 255.929688 L 0 255.929688 Z M 0 0 "/>
        </clipPath>
    </defs>
    <g id="surface1">
        <g clip-path="url(#clip1)" clip-rule="nonzero">
            <path style="stroke:none;fill-rule:nonzero;fill:#FF8A00;fill-opacity:1;" d="M 255.933594 255.929688 L 0 255.929688 L 0 -0.00390625 L 255.933594 -0.00390625 L 255.933594 255.929688"/>
        </g>
        <path style="stroke:none;fill-rule:nonzero;fill:rgb(100%,100%,100%);fill-opacity:1;" d="M 137.851563 143.523438 L 166.246094 143.523438 L 166.246094 135.191406 L 137.851563 135.191406 L 137.851563 109.042969 L 168.496094 109.042969 L 168.496094 100.714844 L 128.644531 100.714844 L 128.644531 179.324219 L 170.304688 179.324219 L 170.304688 170.996094 L 137.851563 170.996094 L 137.851563 143.523438"/>
        <path style="stroke:none;fill-rule:nonzero;fill:rgb(100%,100%,100%);fill-opacity:1;" d="M 178.957031 109.042969 L 201.644531 109.042969 L 201.644531 179.324219 L 210.855469 179.324219 L 210.855469 109.042969 L 233.5 109.042969 L 233.5 100.714844 L 178.957031 100.714844 L 178.957031 109.042969"/>
        <path style="stroke:none;fill-rule:nonzero;fill:rgb(100%,100%,100%);fill-opacity:1;" d="M 28.304688 168.199219 C 26.628906 168.199219 25.203125 168.796875 24.03125 170.007813 C 22.859375 171.214844 22.277344 172.672656 22.277344 174.394531 C 22.277344 176.074219 22.859375 177.523438 24.03125 178.75 C 25.203125 179.972656 26.628906 180.589844 28.304688 180.589844 C 30.023438 180.589844 31.488281 179.972656 32.695313 178.75 C 33.902344 177.523438 34.503906 176.074219 34.503906 174.394531 C 34.503906 172.714844 33.902344 171.257813 32.695313 170.035156 C 31.488281 168.804688 30.023438 168.199219 28.304688 168.199219"/>
        <path style="stroke:none;fill-rule:nonzero;fill:rgb(100%,100%,100%);fill-opacity:1;" d="M 102.078125 167.109375 L 59.875 100.714844 L 47.917969 100.714844 L 47.917969 179.324219 L 57.132813 179.324219 L 57.132813 111.898438 L 100.058594 179.324219 L 111.234375 179.324219 L 111.234375 100.714844 L 102.078125 100.714844 L 102.078125 167.109375"/>
    </g>
</svg>
